PathFileType	4	(X/Y/Z)	4_coords_data.trc
DataRate	CameraRate	NumFrames	NumMarkers	Units	OrigDataRate	OrigDataStartFrame	OrigNumFrames
30.0	30.0	5	21	m	30.0	1	47
Frame#	Time	THUMB_TIP	THUMB_IP	THUMB_MCP	THUMB_CMC	INDEX_TIP	INDEX_DIP	INDEX_PIP	INDEX_MCP	MIDDLE_TIP	MIDDLE_DIP	MIDDLE_PIP	MIDDLE_MCP	RING_TIP	RING_DIP	RING_PIP	RING_MCP	PINKY_TIP	PINKY_DIP	PINKY_PIP	PINKY_MCP	WRIST
X1	Y1	Z1	X2	Y2	Z2	X3	Y3	Z3	X4	Y4	Z4	X5	Y5	Z5	X6	Y6	Z6	X7	Y7	Z7	X8	Y8	Z8	X9	Y9	Z9	X10	Y10	Z10	X11	Y11	Z11	X12	Y12	Z12	X13	Y13	Z13	X14	Y14	Z14	X15	Y15	Z15	X16	Y16	Z16	X17	Y17	Z17	X18	Y18	Z18	X19	Y19	Z19	X20	Y20	Z20	X21	Y21	Z21
0	0.0	0.009006500244140625	-0.03130719947814942	1.0419000244140626	-0.018571300506591795	-0.02929010009765625	1.056300048828125	-0.03618899917602539	-0.038964298248291014	1.0843499755859376	-0.06117829895019531	-0.021067899703979494	1.109050048828125	-0.02331800079345703	-0.06606690216064454	0.973510009765625	-0.036651901245117184	-0.06373519897460937	0.9945079956054688	-0.04857389831542969	-0.05987910079956055	1.0156400146484375	-0.07725830078125	-0.05311259841918945	1.0485799560546876	-0.03284220123291016	-0.03371500015258789	1.0518299560546875	-0.03385250091552734	-0.03374309921264648	1.0498399658203126	-0.04029959869384766	-0.03470069885253906	1.0189299926757813	-0.0851041030883789	-0.03243239974975586	1.03952001953125	-0.029864799499511718	-0.016242799758911134	1.0684200439453124	-0.027494800567626952	-0.016840200424194336	1.0576800537109374	-0.02978129959106445	-0.012389499664306641	1.029	-0.07773400115966797	-0.007946300029754638	1.03927001953125	-0.0394291000366211	0.02425200080871582	0.974677978515625	-0.04450630187988281	0.01921980094909668	0.9951179809570313	-0.05075930023193359	0.014257200241088867	1.0150900268554688	-0.054432899475097656	0.008747810363769532	1.04322998046875	-0.09156639862060546	-0.003563329935073852	1.1208900146484375
1	0.03333333333333333	0.008020609855651855	-0.030975900650024413	1.0401800537109376	-0.017746999740600587	-0.029797399520874023	1.0559599609375	-0.03615549850463867	-0.03881060028076172	1.0831700439453125	-0.05889630126953125	-0.020029199600219726	1.103949951171875	-0.023917299270629883	-0.06558070373535156	0.9740399780273438	-0.03556240081787109	-0.06300979995727539	0.994958984375	-0.04940449905395508	-0.059919300079345705	1.0164199829101563	-0.0768031005859375	-0.05438090133666992	1.0484599609375	-0.043282699584960935	-0.03382440185546875	1.0624200439453124	-0.03120989990234375	-0.03310010147094727	1.047199951171875	-0.04045840072631836	-0.03495299911499023	1.0188200073242188	-0.08386470031738281	-0.031812999725341795	1.038239990234375	-0.03679270172119141	-0.0179601993560791	1.0696300048828125	-0.027960899353027344	-0.01589869976043701	1.056219970703125	-0.03044219970703125	-0.011928099632263184	1.0293399658203124	-0.07629039764404297	-0.007933110237121581	1.038510009765625	-0.0391708984375	0.023403400421142577	0.974333984375	-0.0435713996887207	0.019241100311279298	0.9958920288085937	-0.04936090087890625	0.01485260009765625	1.0152000122070313	-0.05693410110473633	0.008676329612731933	1.0451800537109375	-0.09304920196533203	-0.003395270109176635	1.12325
2	0.06666666666666667	0.008213290214538574	-0.03106139945983887	1.040260009765625	-0.017574399948120118	-0.02977820014953613	1.05577001953125	-0.03590359878540039	-0.03874570083618164	1.08327001953125	-0.05864239883422852	-0.019946800231933594	1.1041300048828124	-0.02384910011291504	-0.06529969787597656	0.97397900390625	-0.035478599548339845	-0.06276250076293945	0.9948800048828125	-0.049284698486328125	-0.059712100982666015	1.016280029296875	-0.07667130279541015	-0.054199199676513675	1.04847998046875	-0.04320780181884765	-0.033785999298095705	1.062760009765625	-0.031117900848388672	-0.03303689956665039	1.047260009765625	-0.040124198913574216	-0.0348031005859375	1.0188800048828126	-0.08363780212402344	-0.031627599716186526	1.0382099609375	-0.03650410079956055	-0.017846000671386718	1.0702099609375	-0.02790559959411621	-0.015781200408935547	1.056489990234375	-0.030183399200439453	-0.011848999977111816	1.0293299560546876	-0.07594490051269531	-0.0077767400741577146	1.0383800048828125	-0.03885400009155274	0.02316110038757324	0.9743319702148437	-0.0432406005859375	0.019100099563598632	0.9959320068359375	-0.04899480056762695	0.014836299896240234	1.015260009765625	-0.05676340103149414	0.008813480377197265	1.045469970703125	-0.09283260345458984	-0.003282540082931518	1.123030029296875
3	0.1	0.00835764980316162	-0.03110700035095215	1.0401199951171876	-0.017251699447631837	-0.02972960090637207	1.0558299560546875	-0.03569490051269531	-0.03838619995117187	1.0830899658203126	-0.05849359893798828	-0.019843700408935547	1.104260009765625	-0.02380419921875	-0.06500189971923828	0.9739180297851563	-0.03542850112915039	-0.0625098991394043	0.9948170166015625	-0.049272499084472655	-0.059493999481201175	1.016280029296875	-0.07653309631347656	-0.05402460098266602	1.0484000244140625	-0.04281919860839844	-0.03369829940795899	1.0624599609375	-0.030918800354003906	-0.03301620101928711	1.0471300048828125	-0.04015829849243164	-0.0346859016418457	1.0188599853515625	-0.08362840270996094	-0.031425399780273436	1.038219970703125	-0.036454799652099606	-0.01772130012512207	1.0695999755859376	-0.027581300735473633	-0.015717300415039062	1.056530029296875	-0.029986799240112303	-0.01175759983062744	1.029489990234375	-0.07576509857177735	-0.0076182599067687986	1.0383900146484375	-0.03865840148925781	0.023280399322509766	0.97435302734375	-0.0430875015258789	0.019243099212646483	0.9959329833984375	-0.04885290145874024	0.014995100021362305	1.015260009765625	-0.05649140167236328	0.008988759994506835	1.0453499755859375	-0.09260079956054687	-0.003106980085372925	1.122989990234375
4	0.13333333333333333	0.008445039749145507	-0.031000200271606444	1.0400799560546874	-0.017240999221801757	-0.029634899139404296	1.05568994140625	-0.035618698120117184	-0.03851309967041015	1.08331005859375	-0.05837419891357422	-0.019583799362182616	1.1045	-0.023745100021362306	-0.06474510192871094	0.9738790283203125	-0.035373699188232424	-0.06223899841308594	0.9947880249023437	-0.049197799682617185	-0.05923910140991211	1.0162999877929688	-0.07643840026855468	-0.05383050155639649	1.048489990234375	-0.042893001556396484	-0.03357519912719727	1.062719970703125	-0.030771999359130858	-0.032815601348876955	1.047050048828125	-0.040118000030517575	-0.03445259857177734	1.0187999877929688	-0.08350669860839843	-0.03123139953613281	1.038239990234375	-0.03629040145874023	-0.01787019920349121	1.0691400146484376	-0.02731990051269531	-0.015561300277709961	1.05631005859375	-0.02998080062866211	-0.011522199630737305	1.02931005859375	-0.07586060333251952	-0.007357830047607422	1.03868994140625	-0.03863779830932617	0.023517099380493164	0.9743389892578125	-0.04305350112915039	0.019439199447631835	0.995864013671875	-0.048772098541259766	0.01522410011291504	1.015239990234375	-0.056381500244140625	0.009141650199890137	1.0454000244140624	-0.09235420227050781	-0.003005880117416382	1.1225799560546874
